{"title":"Our Girl S04E06 Bangladesh Tour Episode 6. revittony","magnet":"magnet:?xt=urn:btih:c580396c71630a4ba2ba37e43283006a29b0fcab&dn=Our+Girl+S04E06+Bangladesh+Tour+Episode+6.+revittony&tr=udp%3A%2F%2Ftracker.leechers-paradise.org%3A6969&tr=udp%3A%2F%2Fzer0day.ch%3A1337&tr=udp%3A%2F%2Fopen.demonii.com%3A1337&tr=udp%3A%2F%2Ftracker.coppersurfer.tk%3A6969&tr=udp%3A%2F%2Fexodus.desync.com%3A6969","uploader":"revittony1","categoryP":"video","categoryS":"tv_shows","size":"691596724","seeders":"0","leechers":"0","description":"www.imdb.com/title/tt3815412\r\n\r\nFormat : MPEG-4 \r\nFormat profile : Base Media \r\nCodec ID : isom (isom/iso2/avc1/mp41) \r\nOverall bit rate mode : Variable \r\nOverall bit rate : 1 663 kb/s \r\n\r\n\r\nVideo \r\nID : 1 \r\nFormat : AVC \r\nFormat/Info : Advanced Video Codec \r\nFormat profile : Main@L3.1 \r\nFormat settings : CABAC / 4 Ref Frames \r\nFormat settings, CABAC : Yes \r\nFormat settings, RefFrames : 4 frames \r\nFormat settings, GOP : M=8, N=96 \r\nCodec ID : avc1 \r\nCodec ID/Info : Advanced Video Coding \r\nDuration : 57 min 43 s \r\nBit rate : 1 564 kb/s \r\nWidth : 960 pixels \r\nHeight : 540 pixels \r\nDisplay aspect ratio : 16:9 \r\nFrame rate mode : Constant \r\nFrame rate : 25.000 FPS \r\nColor space : YUV \r\nChroma subsampling : 4:2:0 \r\nBit depth : 8 bits \r\nScan type : Progressive \r\nBits/(Pixel*Frame) : 0.121 \r\nStream size : 646 MiB (94%) \r\nColor range : Limited \r\nColor primaries : BT.709 \r\nTransfer characteristics : BT.709 \r\nMatrix coefficients : BT.709 \r\n\r\nAudio \r\nID : 2 \r\nFormat : AAC \r\nFormat/Info : Advanced Audio Codec \r\nFormat profile : HE-AAC / LC \r\nFormat settings : Implicit \r\nCodec ID : mp4a-40-2 \r\nDuration : 57 min 43 s \r\nBit rate mode : Variable \r\nBit rate : 96.0 kb/s \r\nMaximum bit rate : 101 kb/s \r\nChannel(s) : 2 channels \r\nChannel positions : Front: L R \r\nSampling rate : 48.0 kHz / 24.0 kHz \r\nFrame rate : 23.438 FPS (1024 SPF) \r\nCompression mode : Lossy \r\nStream size : 39.1 MiB (6%) \r\nLanguage : English \r\nDefault : Yes \r\nAlternate group : 1","last_updated":"2018-07-18T12:11:57.138Z","parsed":{"xt":"urn:btih:c580396c71630a4ba2ba37e43283006a29b0fcab","dn":"Our Girl S04E06 Bangladesh Tour Episode 6. revittony","tr":["udp://exodus.desync.com:6969","udp://open.demonii.com:1337","udp://tracker.coppersurfer.tk:6969","udp://tracker.leechers-paradise.org:6969","udp://zer0day.ch:1337"],"infoHash":"c580396c71630a4ba2ba37e43283006a29b0fcab","infoHashBuffer":{"type":"Buffer","data":[197,128,57,108,113,99,10,75,162,186,55,228,50,131,0,106,41,176,252,171]},"name":"Our Girl S04E06 Bangladesh Tour Episode 6. revittony","announce":["udp://exodus.desync.com:6969","udp://open.demonii.com:1337","udp://tracker.coppersurfer.tk:6969","udp://tracker.leechers-paradise.org:6969","udp://zer0day.ch:1337"],"urlList":[]}}